<?xml version="1.0" encoding="UTF-8" standalone="no"?>
<svg
   width="24"
   height="24"
   viewBox="0 0 24 24"
   fill="none"
   version="1.1"
   id="svg3"
   sodipodi:docname="instagram-gradient.svg"
   inkscape:version="1.3.2 (091e20e, 2023-11-25, custom)"
   xmlns:inkscape="http://www.inkscape.org/namespaces/inkscape"
   xmlns:sodipodi="http://sodipodi.sourceforge.net/DTD/sodipodi-0.dtd"
   xmlns="http://www.w3.org/2000/svg"
   xmlns:svg="http://www.w3.org/2000/svg">
  <sodipodi:namedview
     id="namedview3"
     pagecolor="#ffffff"
     bordercolor="#000000"
     borderopacity="0.25"
     inkscape:showpageshadow="2"
     inkscape:pageopacity="0.0"
     inkscape:pagecheckerboard="0"
     inkscape:deskcolor="#d1d1d1"
     inkscape:zoom="32.791667"
     inkscape:cx="11.984752"
     inkscape:cy="12"
     inkscape:window-width="1920"
     inkscape:window-height="974"
     inkscape:window-x="-11"
     inkscape:window-y="-11"
     inkscape:window-maximized="1"
     inkscape:current-layer="g1" />
  <g
     clip-path="url(#clip0_214_261)"
     id="g1">
    <path
       d="m 12.000009,16.597708 c -2.5296826,0 -4.5977105,-2.061919 -4.5977105,-4.597725 0,-2.5358069 2.0618746,-4.5976686 4.5977105,-4.5976686 2.535836,0 4.597711,2.0618617 4.597711,4.5976686 0,2.535806 -2.068082,4.597725 -4.597711,4.597725 z M 19.779807,5.8697206 c 0,0.9170973 -0.738604,1.649501 -1.649553,1.649501 -0.917049,0 -1.649501,-0.7385505 -1.649501,-1.649501 0,-0.9109164 0.738605,-1.6495007 1.649501,-1.6495007 0.910949,0 1.649553,0.7385843 1.649553,1.6495007 z m 2.97277,14.2609154 c -0.48006,1.206347 -1.409469,2.135738 -2.621981,2.621978 -1.815693,0.720109 -6.124092,0.553913 -8.130587,0.553913 -2.0064954,0 -6.321103,0.160048 -8.1306195,-0.553913 C 2.6630309,22.272522 1.7336436,21.34313 1.2474083,20.130636 0.52728517,18.314938 0.69346572,14.006521 0.69346572,11.999983 0.69346572,9.9935006 0.53344,5.6789359 1.2474083,3.8693859 1.7274904,2.6630267 2.6568776,1.7336408 3.8693895,1.2474022 5.6850593,0.52728221 9.9935136,0.69346676 12.000009,0.69346676 c 2.006495,0 6.321049,-0.1600296 8.130587,0.55393544 1.206359,0.4800859 2.135768,1.4094717 2.621981,2.6219837 0.720145,1.8156972 0.553954,6.1241147 0.553954,8.1305971 0,2.006538 0.166191,6.321103 -0.553954,8.130653 z"
       stroke="url(#paint0_linear_214_261)"
       stroke-width="1.35352"
       id="path1"
       style="stroke:url(#paint0_linear_214_261)" />
  </g>
  <defs
     id="defs3">
    <linearGradient
       id="paint0_linear_214_261"
       x1="416"
       y1="30"
       x2="23.5"
       y2="391"
       gradientUnits="userSpaceOnUse"
       gradientTransform="matrix(0.05350654,0,0,0.05588309,0.01454266,-0.0148792)">
      <stop
         stop-color="#880CF8"
         id="stop1" />
      <stop
         offset="0.485"
         stop-color="#FD0109"
         id="stop2" />
      <stop
         offset="1"
         stop-color="#FFC600"
         id="stop3" />
    </linearGradient>
    <clipPath
       id="clip0_214_261">
      <rect
         width="448"
         height="430"
         fill="#ffffff"
         id="rect3"
         x="0"
         y="0" />
    </clipPath>
  </defs>
</svg>
